REM MD5 9e453ec3d3c20302e271eca5f272bcb7
FILE "Master of Monsters - Disciples of Gaia (USA).bin" BINARY
  TRACK 01 MODE2/2352
    INDEX 01 00:00:00
  TRACK 02 AUDIO
    INDEX 00 16:27:43
    INDEX 01 16:29:43
  TRACK 03 AUDIO
    INDEX 00 17:47:61
    INDEX 01 17:49:61
  TRACK 04 AUDIO
    INDEX 00 19:23:21
    INDEX 01 19:25:21
  TRACK 05 AUDIO
    INDEX 00 21:09:63
    INDEX 01 21:11:63
  TRACK 06 AUDIO
    INDEX 00 23:09:61
    INDEX 01 23:11:61
REM LEADOUT 24:46:00
